<svg width="596" height="259" viewBox="0 0 596 259" fill="none" xmlns="http://www.w3.org/2000/svg">
<path d="M41.76 114.2C36.96 114.2 32.6 113.08 28.68 110.84C24.84 108.52 21.8 105.44 19.56 101.6V113H7.92V25.4H21.12V62.12C23.6 58.12 26.68 54.96 30.36 52.64C34.12 50.32 38.52 49.16 43.56 49.16C47.72 49.16 51.52 50.04 54.96 51.8C58.4 53.56 61.32 55.96 63.72 59C66.2 62.04 68.08 65.52 69.36 69.44C70.72 73.36 71.4 77.52 71.4 81.92C71.4 86.32 70.64 90.48 69.12 94.4C67.68 98.32 65.6 101.76 62.88 104.72C60.16 107.68 57 110 53.4 111.68C49.88 113.36 46 114.2 41.76 114.2ZM38.28 102.92C41.16 102.92 43.8 102.36 46.2 101.24C48.6 100.04 50.68 98.48 52.44 96.56C54.2 94.64 55.52 92.4 56.4 89.84C57.36 87.28 57.84 84.64 57.84 81.92C57.84 78.16 57.04 74.64 55.44 71.36C53.92 68.08 51.76 65.44 48.96 63.44C46.16 61.44 42.92 60.44 39.24 60.44C36.6 60.44 34.12 61.08 31.8 62.36C29.48 63.56 27.4 65.2 25.56 67.28C23.8 69.28 22.32 71.52 21.12 74V90.56C21.6 92.4 22.44 94.08 23.64 95.6C24.84 97.04 26.24 98.32 27.84 99.44C29.44 100.48 31.16 101.32 33 101.96C34.84 102.6 36.6 102.92 38.28 102.92ZM593.63 61.64C588.51 61.72 583.95 62.88 579.95 65.12C576.03 67.36 573.23 70.52 571.55 74.6V113H558.35V50.24H570.59V64.28C572.75 59.96 575.59 56.52 579.11 53.96C582.63 51.32 586.35 49.88 590.27 49.64C591.07 49.64 591.71 49.64 592.19 49.64C592.75 49.64 593.23 49.68 593.63 49.76V61.64Z" fill="#E7E1D9"/>
<path d="M118.552 61.64C113.432 61.72 108.872 62.88 104.872 65.12C100.952 67.36 98.1516 70.52 96.4716 74.6V113H83.2716V50.24H95.5116V64.28C97.6716 59.96 100.512 56.52 104.032 53.96C107.552 51.32 111.272 49.88 115.192 49.64C115.992 49.64 116.632 49.64 117.112 49.64C117.672 49.64 118.152 49.68 118.552 49.76V61.64ZM332.814 127.76C334.014 127.92 335.174 128.08 336.294 128.24C337.494 128.48 338.454 128.6 339.174 128.6C340.534 128.6 341.694 128.16 342.654 127.28C343.694 126.48 344.734 124.96 345.774 122.72C346.814 120.48 348.094 117.24 349.614 113L323.814 50.24H337.614L356.814 99.56L373.854 50.24H386.574L358.134 127.52C357.254 129.84 355.974 131.96 354.294 133.88C352.614 135.88 350.534 137.44 348.054 138.56C345.574 139.68 342.654 140.24 339.294 140.24C338.334 140.24 337.334 140.16 336.294 140C335.254 139.84 334.094 139.6 332.814 139.28V127.76Z" fill="#EDCFCC"/>
<path d="M128.154 113V50.24H141.354V113H128.154ZM128.154 39.92V25.4H141.354V39.92H128.154ZM395.679 88.64V50.24H408.879V86C408.879 91.6 409.879 95.84 411.879 98.72C413.959 101.52 416.959 102.92 420.879 102.92C423.359 102.92 425.759 102.4 428.079 101.36C430.479 100.32 432.639 98.8 434.559 96.8C436.559 94.72 438.159 92.24 439.359 89.36V50.24H452.559V98.12C452.559 99.64 452.839 100.72 453.399 101.36C453.959 102 454.879 102.36 456.159 102.44V113C454.799 113.24 453.679 113.4 452.799 113.48C451.919 113.56 451.079 113.6 450.279 113.6C447.879 113.6 445.879 112.96 444.279 111.68C442.679 110.32 441.759 108.6 441.519 106.52L441.279 100.28C438.479 104.84 434.839 108.32 430.359 110.72C425.879 113.04 420.959 114.2 415.599 114.2C409.039 114.2 404.079 112.04 400.719 107.72C397.359 103.4 395.679 97.04 395.679 88.64Z" fill="#A6C3D2"/>
<path d="M213.497 113H200.297V77.84C200.297 72 199.337 67.72 197.417 65C195.577 62.28 192.817 60.92 189.137 60.92C186.577 60.92 184.017 61.56 181.457 62.84C178.977 64.12 176.737 65.88 174.737 68.12C172.737 70.28 171.297 72.8 170.417 75.68V113H157.217V50.24H169.217V62.84C170.817 60.04 172.897 57.64 175.457 55.64C178.097 53.56 181.057 51.96 184.337 50.84C187.617 49.72 191.097 49.16 194.777 49.16C198.537 49.16 201.617 49.84 204.017 51.2C206.497 52.56 208.417 54.44 209.777 56.84C211.217 59.16 212.177 61.88 212.657 65C213.217 68.04 213.497 71.28 213.497 74.72V113Z" fill="#CADBE4"/>
<path d="M253.658 113.6C249.418 113.6 245.538 112.76 242.018 111.08C238.498 109.32 235.458 106.96 232.898 104C230.418 101.04 228.458 97.64 227.018 93.8C225.658 89.96 224.978 85.92 224.978 81.68C224.978 77.2 225.698 73 227.138 69.08C228.578 65.16 230.578 61.72 233.138 58.76C235.778 55.72 238.858 53.36 242.378 51.68C245.898 50 249.818 49.16 254.138 49.16C259.178 49.16 263.578 50.36 267.338 52.76C271.178 55.16 274.338 58.28 276.818 62.12V50.24H288.458V111.2C288.458 117.28 286.978 122.44 284.018 126.68C281.138 130.92 277.178 134.16 272.138 136.4C267.098 138.64 261.418 139.76 255.098 139.76C248.138 139.76 242.378 138.56 237.818 136.16C233.258 133.76 229.378 130.48 226.178 126.32L233.618 119.36C236.018 122.72 239.098 125.28 242.858 127.04C246.698 128.8 250.778 129.68 255.098 129.68C258.698 129.68 262.018 129 265.058 127.64C268.178 126.36 270.658 124.32 272.498 121.52C274.338 118.8 275.258 115.36 275.258 111.2V101.6C273.018 105.36 269.938 108.32 266.018 110.48C262.098 112.56 257.978 113.6 253.658 113.6ZM257.978 102.92C259.978 102.92 261.898 102.6 263.738 101.96C265.578 101.24 267.258 100.32 268.778 99.2C270.378 98 271.738 96.68 272.858 95.24C273.978 93.72 274.778 92.12 275.258 90.44V74C274.218 71.28 272.738 68.92 270.818 66.92C268.898 64.84 266.738 63.24 264.338 62.12C261.938 61 259.498 60.44 257.018 60.44C254.138 60.44 251.538 61.08 249.218 62.36C246.978 63.56 245.058 65.2 243.458 67.28C241.858 69.28 240.618 71.56 239.738 74.12C238.858 76.68 238.418 79.32 238.418 82.04C238.418 84.92 238.898 87.6 239.858 90.08C240.898 92.56 242.298 94.8 244.058 96.8C245.818 98.72 247.898 100.24 250.298 101.36C252.698 102.4 255.258 102.92 257.978 102.92Z" fill="#E9E1D7"/>
<path d="M81.7646 232.2C76.9646 232.2 72.6046 231.08 68.6846 228.84C64.8446 226.52 61.8046 223.44 59.5646 219.6V231H47.9246V143.4H61.1246V180.12C63.6046 176.12 66.6846 172.96 70.3646 170.64C74.1246 168.32 78.5246 167.16 83.5646 167.16C87.7246 167.16 91.5246 168.04 94.9646 169.8C98.4046 171.56 101.325 173.96 103.725 177C106.205 180.04 108.085 183.52 109.365 187.44C110.725 191.36 111.405 195.52 111.405 199.92C111.405 204.32 110.645 208.48 109.125 212.4C107.685 216.32 105.605 219.76 102.885 222.72C100.165 225.68 97.0046 228 93.4046 229.68C89.8846 231.36 86.0046 232.2 81.7646 232.2ZM78.2846 220.92C81.1646 220.92 83.8046 220.36 86.2046 219.24C88.6046 218.04 90.6846 216.48 92.4446 214.56C94.2046 212.64 95.5246 210.4 96.4046 207.84C97.3646 205.28 97.8446 202.64 97.8446 199.92C97.8446 196.16 97.0446 192.64 95.4446 189.36C93.9246 186.08 91.7646 183.44 88.9646 181.44C86.1646 179.44 82.9246 178.44 79.2446 178.44C76.6046 178.44 74.1246 179.08 71.8046 180.36C69.4846 181.56 67.4046 183.2 65.5646 185.28C63.8046 187.28 62.3246 189.52 61.1246 192V208.56C61.6046 210.4 62.4446 212.08 63.6446 213.6C64.8446 215.04 66.2446 216.32 67.8446 217.44C69.4446 218.48 71.1646 219.32 73.0046 219.96C74.8446 220.6 76.6046 220.92 78.2846 220.92ZM337.388 212.64C337.388 208.64 338.508 205.16 340.748 202.2C343.068 199.16 346.228 196.84 350.228 195.24C354.228 193.56 358.868 192.72 364.148 192.72C366.948 192.72 369.788 192.92 372.668 193.32C375.628 193.72 378.228 194.36 380.468 195.24V191.28C380.468 186.88 379.148 183.44 376.508 180.96C373.868 178.48 370.068 177.24 365.108 177.24C361.588 177.24 358.268 177.88 355.148 179.16C352.028 180.36 348.708 182.08 345.188 184.32L340.748 175.44C344.908 172.64 349.068 170.56 353.228 169.2C357.468 167.84 361.908 167.16 366.548 167.16C374.948 167.16 381.548 169.4 386.348 173.88C391.228 178.28 393.668 184.56 393.668 192.72V216.12C393.668 217.64 393.908 218.72 394.388 219.36C394.948 220 395.868 220.36 397.148 220.44V231C395.948 231.24 394.868 231.4 393.908 231.48C392.948 231.56 392.148 231.6 391.508 231.6C388.708 231.6 386.588 230.92 385.148 229.56C383.708 228.2 382.868 226.6 382.628 224.76L382.268 221.16C379.548 224.68 376.068 227.4 371.828 229.32C367.588 231.24 363.308 232.2 358.988 232.2C354.828 232.2 351.108 231.36 347.828 229.68C344.548 227.92 341.988 225.56 340.148 222.6C338.308 219.64 337.388 216.32 337.388 212.64ZM377.348 216.48C378.308 215.44 379.068 214.4 379.628 213.36C380.188 212.32 380.468 211.4 380.468 210.6V203.4C378.228 202.52 375.868 201.88 373.388 201.48C370.908 201 368.468 200.76 366.068 200.76C361.268 200.76 357.348 201.72 354.308 203.64C351.348 205.56 349.868 208.2 349.868 211.56C349.868 213.4 350.348 215.16 351.308 216.84C352.348 218.52 353.788 219.88 355.628 220.92C357.548 221.96 359.908 222.48 362.708 222.48C365.588 222.48 368.348 221.92 370.988 220.8C373.628 219.68 375.748 218.24 377.348 216.48Z" fill="#EDCFCC"/>
<path d="M118.716 212.64C118.716 208.64 119.836 205.16 122.076 202.2C124.396 199.16 127.556 196.84 131.556 195.24C135.556 193.56 140.196 192.72 145.476 192.72C148.276 192.72 151.116 192.92 153.996 193.32C156.956 193.72 159.556 194.36 161.796 195.24V191.28C161.796 186.88 160.476 183.44 157.836 180.96C155.196 178.48 151.396 177.24 146.436 177.24C142.916 177.24 139.596 177.88 136.476 179.16C133.356 180.36 130.036 182.08 126.516 184.32L122.076 175.44C126.236 172.64 130.396 170.56 134.556 169.2C138.796 167.84 143.236 167.16 147.876 167.16C156.276 167.16 162.876 169.4 167.676 173.88C172.556 178.28 174.996 184.56 174.996 192.72V216.12C174.996 217.64 175.236 218.72 175.716 219.36C176.276 220 177.196 220.36 178.476 220.44V231C177.276 231.24 176.196 231.4 175.236 231.48C174.276 231.56 173.476 231.6 172.836 231.6C170.036 231.6 167.916 230.92 166.476 229.56C165.036 228.2 164.196 226.6 163.956 224.76L163.596 221.16C160.876 224.68 157.396 227.4 153.156 229.32C148.916 231.24 144.636 232.2 140.316 232.2C136.156 232.2 132.436 231.36 129.156 229.68C125.876 227.92 123.316 225.56 121.476 222.6C119.636 219.64 118.716 216.32 118.716 212.64ZM158.676 216.48C159.636 215.44 160.396 214.4 160.956 213.36C161.516 212.32 161.796 211.4 161.796 210.6V203.4C159.556 202.52 157.196 201.88 154.716 201.48C152.236 201 149.796 200.76 147.396 200.76C142.596 200.76 138.676 201.72 135.636 203.64C132.676 205.56 131.196 208.2 131.196 211.56C131.196 213.4 131.676 215.16 132.636 216.84C133.676 218.52 135.116 219.88 136.956 220.92C138.876 221.96 141.236 222.48 144.036 222.48C146.916 222.48 149.676 221.92 152.316 220.8C154.956 219.68 157.076 218.24 158.676 216.48Z" fill="#9FC4D4"/>
<path d="M215.851 231.6C211.611 231.6 207.731 230.76 204.211 229.08C200.691 227.32 197.651 224.96 195.091 222C192.611 219.04 190.651 215.64 189.211 211.8C187.851 207.96 187.171 203.92 187.171 199.68C187.171 195.2 187.891 191 189.331 187.08C190.771 183.16 192.771 179.72 195.331 176.76C197.971 173.72 201.051 171.36 204.571 169.68C208.091 168 212.011 167.16 216.331 167.16C221.371 167.16 225.771 168.36 229.531 170.76C233.371 173.16 236.531 176.28 239.011 180.12V168.24H250.651V229.2C250.651 235.28 249.171 240.44 246.211 244.68C243.331 248.92 239.371 252.16 234.331 254.4C229.291 256.64 223.611 257.76 217.291 257.76C210.331 257.76 204.571 256.56 200.011 254.16C195.451 251.76 191.571 248.48 188.371 244.32L195.811 237.36C198.211 240.72 201.291 243.28 205.051 245.04C208.891 246.8 212.971 247.68 217.291 247.68C220.891 247.68 224.211 247 227.251 245.64C230.371 244.36 232.851 242.32 234.691 239.52C236.531 236.8 237.451 233.36 237.451 229.2V219.6C235.211 223.36 232.131 226.32 228.211 228.48C224.291 230.56 220.171 231.6 215.851 231.6ZM220.171 220.92C222.171 220.92 224.091 220.6 225.931 219.96C227.771 219.24 229.451 218.32 230.971 217.2C232.571 216 233.931 214.68 235.051 213.24C236.171 211.72 236.971 210.12 237.451 208.44V192C236.411 189.28 234.931 186.92 233.011 184.92C231.091 182.84 228.931 181.24 226.531 180.12C224.131 179 221.691 178.44 219.211 178.44C216.331 178.44 213.731 179.08 211.411 180.36C209.171 181.56 207.251 183.2 205.651 185.28C204.051 187.28 202.811 189.56 201.931 192.12C201.051 194.68 200.611 197.32 200.611 200.04C200.611 202.92 201.091 205.6 202.051 208.08C203.091 210.56 204.491 212.8 206.251 214.8C208.011 216.72 210.091 218.24 212.491 219.36C214.891 220.4 217.451 220.92 220.171 220.92Z" fill="#CADBE4"/>
<path d="M291.319 231.6C287.079 231.6 283.199 230.76 279.679 229.08C276.159 227.32 273.119 224.96 270.559 222C268.079 219.04 266.119 215.64 264.679 211.8C263.319 207.96 262.639 203.92 262.639 199.68C262.639 195.2 263.359 191 264.799 187.08C266.239 183.16 268.239 179.72 270.799 176.76C273.439 173.72 276.519 171.36 280.039 169.68C283.559 168 287.479 167.16 291.799 167.16C296.839 167.16 301.239 168.36 304.999 170.76C308.839 173.16 311.999 176.28 314.479 180.12V168.24H326.119V229.2C326.119 235.28 324.639 240.44 321.679 244.68C318.799 248.92 314.839 252.16 309.799 254.4C304.759 256.64 299.079 257.76 292.759 257.76C285.799 257.76 280.039 256.56 275.479 254.16C270.919 251.76 267.039 248.48 263.839 244.32L271.279 237.36C273.679 240.72 276.759 243.28 280.519 245.04C284.359 246.8 288.439 247.68 292.759 247.68C296.359 247.68 299.679 247 302.719 245.64C305.839 244.36 308.319 242.32 310.159 239.52C311.999 236.8 312.919 233.36 312.919 229.2V219.6C310.679 223.36 307.599 226.32 303.679 228.48C299.759 230.56 295.639 231.6 291.319 231.6ZM295.639 220.92C297.639 220.92 299.559 220.6 301.399 219.96C303.239 219.24 304.919 218.32 306.439 217.2C308.039 216 309.399 214.68 310.519 213.24C311.639 211.72 312.439 210.12 312.919 208.44V192C311.879 189.28 310.399 186.92 308.479 184.92C306.559 182.84 304.399 181.24 301.999 180.12C299.599 179 297.159 178.44 294.679 178.44C291.799 178.44 289.199 179.08 286.879 180.36C284.639 181.56 282.719 183.2 281.119 185.28C279.519 187.28 278.279 189.56 277.399 192.12C276.519 194.68 276.079 197.32 276.079 200.04C276.079 202.92 276.559 205.6 277.519 208.08C278.559 210.56 279.959 212.8 281.719 214.8C283.479 216.72 285.559 218.24 287.959 219.36C290.359 220.4 292.919 220.92 295.639 220.92Z" fill="#E9E1D7"/>
<path d="M434.522 231.6C430.282 231.6 426.402 230.76 422.882 229.08C419.362 227.32 416.322 224.96 413.762 222C411.282 219.04 409.322 215.64 407.882 211.8C406.522 207.96 405.842 203.92 405.842 199.68C405.842 195.2 406.562 191 408.002 187.08C409.442 183.16 411.442 179.72 414.002 176.76C416.642 173.72 419.722 171.36 423.242 169.68C426.762 168 430.682 167.16 435.002 167.16C440.042 167.16 444.442 168.36 448.202 170.76C452.042 173.16 455.202 176.28 457.682 180.12V168.24H469.322V229.2C469.322 235.28 467.842 240.44 464.882 244.68C462.002 248.92 458.042 252.16 453.002 254.4C447.962 256.64 442.282 257.76 435.962 257.76C429.002 257.76 423.242 256.56 418.682 254.16C414.122 251.76 410.242 248.48 407.042 244.32L414.482 237.36C416.882 240.72 419.962 243.28 423.722 245.04C427.562 246.8 431.642 247.68 435.962 247.68C439.562 247.68 442.882 247 445.922 245.64C449.042 244.36 451.522 242.32 453.362 239.52C455.202 236.8 456.122 233.36 456.122 229.2V219.6C453.882 223.36 450.802 226.32 446.882 228.48C442.962 230.56 438.842 231.6 434.522 231.6ZM438.842 220.92C440.842 220.92 442.762 220.6 444.602 219.96C446.442 219.24 448.122 218.32 449.642 217.2C451.242 216 452.602 214.68 453.722 213.24C454.842 211.72 455.642 210.12 456.122 208.44V192C455.082 189.28 453.602 186.92 451.682 184.92C449.762 182.84 447.602 181.24 445.202 180.12C442.802 179 440.362 178.44 437.882 178.44C435.002 178.44 432.402 179.08 430.082 180.36C427.842 181.56 425.922 183.2 424.322 185.28C422.722 187.28 421.482 189.56 420.602 192.12C419.722 194.68 419.282 197.32 419.282 200.04C419.282 202.92 419.762 205.6 420.722 208.08C421.762 210.56 423.162 212.8 424.922 214.8C426.682 216.72 428.762 218.24 431.162 219.36C433.562 220.4 436.122 220.92 438.842 220.92Z" fill="#A6C3D2"/>
<path d="M513.591 232.2C508.711 232.2 504.271 231.36 500.271 229.68C496.351 227.92 492.951 225.56 490.071 222.6C487.191 219.56 484.951 216.12 483.351 212.28C481.831 208.36 481.071 204.2 481.071 199.8C481.071 193.88 482.431 188.48 485.151 183.6C487.871 178.64 491.671 174.68 496.551 171.72C501.431 168.68 507.151 167.16 513.711 167.16C520.271 167.16 525.911 168.68 530.631 171.72C535.431 174.68 539.151 178.6 541.791 183.48C544.431 188.36 545.751 193.6 545.751 199.2C545.751 200.16 545.711 201.08 545.631 201.96C545.551 202.76 545.471 203.44 545.391 204H495.111C495.351 207.68 496.351 210.92 498.111 213.72C499.951 216.44 502.271 218.6 505.071 220.2C507.871 221.72 510.871 222.48 514.071 222.48C517.591 222.48 520.911 221.6 524.031 219.84C527.231 218.08 529.391 215.76 530.511 212.88L541.791 216.12C540.431 219.16 538.351 221.92 535.551 224.4C532.831 226.8 529.591 228.72 525.831 230.16C522.071 231.52 517.991 232.2 513.591 232.2ZM494.751 195.24H532.671C532.431 191.64 531.391 188.48 529.551 185.76C527.791 182.96 525.511 180.8 522.711 179.28C519.991 177.68 516.951 176.88 513.591 176.88C510.311 176.88 507.271 177.68 504.471 179.28C501.751 180.8 499.511 182.96 497.751 185.76C495.991 188.48 494.991 191.64 494.751 195.24Z" fill="#E7E1D9"/>
<path fill-rule="evenodd" clip-rule="evenodd" d="M507.212 117.778C530.661 116.62 538.894 110.828 542.376 82.8893C544.759 63.7656 526.632 48.0005 507.212 48.0005C487.792 48.0005 470.97 56.2334 472.05 82.8893C472.83 102.143 487.817 118.733 507.212 117.778Z" fill="#CDDBE3"/>
<path fill-rule="evenodd" clip-rule="evenodd" d="M488.977 80.4482C487.498 80.4482 486.43 79.7012 486.43 78.2812C486.43 76.8442 487.498 76.1126 488.977 76.1126C490.457 76.1126 491.525 76.8442 491.525 78.2812C491.525 79.7012 490.457 80.4482 488.977 80.4482ZM488.977 73.9023C485.712 73.9023 483.663 75.557 483.663 78.2812C483.663 80.99 485.712 82.6724 488.977 82.6724C492.227 82.6724 494.28 80.99 494.28 78.2812C494.28 75.557 492.227 73.9023 488.977 73.9023Z" fill="#1D344A"/>
<mask id="mask0_2_599" style="mask-type:luminance" maskUnits="userSpaceOnUse" x="472" y="48" width="71" height="70">
<path d="M472 117.818H542.588V48H472V117.818Z" fill="white"/>
</mask>
<g mask="url(#mask0_2_599)">
<path fill-rule="evenodd" clip-rule="evenodd" d="M497.83 79.027H518.033V76.7566H497.83V79.027Z" fill="#1D344A"/>
</g>
<mask id="mask1_2_599" style="mask-type:luminance" maskUnits="userSpaceOnUse" x="472" y="48" width="71" height="70">
<path d="M472 117.818H542.588V48H472V117.818Z" fill="white"/>
</mask>
<g mask="url(#mask1_2_599)">
<path fill-rule="evenodd" clip-rule="evenodd" d="M528.584 73.9305C527.135 73.9305 525.933 74.5016 525.246 75.511V74.3997V69.5532H522.361V74.2222V82.3363H525.246V77.533C525.86 76.5359 526.681 76.0837 527.632 76.0837C528.731 76.0837 529.33 76.698 529.33 77.7537V82.3363H532.216V77.5639C532.216 75.44 530.941 73.9305 528.584 73.9305Z" fill="#1D344A"/>
</g>
<mask id="mask2_2_599" style="mask-type:luminance" maskUnits="userSpaceOnUse" x="472" y="48" width="71" height="70">
<path d="M472 117.818H542.588V48H472V117.818Z" fill="white"/>
</mask>
<g mask="url(#mask2_2_599)">
<path fill-rule="evenodd" clip-rule="evenodd" d="M502.683 102.004L501.943 100.234L513.56 95.3965L514.296 97.1669L502.683 102.004Z" fill="#1D344A"/>
</g>
<mask id="mask3_2_599" style="mask-type:luminance" maskUnits="userSpaceOnUse" x="472" y="48" width="71" height="70">
<path d="M472 117.818H542.588V48H472V117.818Z" fill="white"/>
</mask>
<g mask="url(#mask3_2_599)">
<path fill-rule="evenodd" clip-rule="evenodd" d="M502.683 102.004L501.943 100.234L513.56 95.3965L514.296 97.1669L502.683 102.004Z" stroke="#1D344A" stroke-width="0.5"/>
</g>
</svg>
