<svg width="114" height="130" viewBox="0 0 114 130" fill="none" xmlns="http://www.w3.org/2000/svg">
<path fill-rule="evenodd" clip-rule="evenodd" d="M10.7792 45.7788C10.846 46.7656 10.9317 47.7603 11.1292 48.7266C12.7645 56.7299 16.1001 63.8679 22.1651 69.4557C31.4769 78.0357 42.0409 83.0049 55.1102 80.8096C66.4077 78.9119 74.8282 73.1662 79.9547 62.7777C80.6635 61.3424 81.3452 59.888 81.9351 58.4012C85.7842 48.7098 86.7426 38.9163 82.4154 29.1313C74.8446 12.0099 60.6034 5.40603 43.4716 4.65487C37.1035 4.37535 31.2241 6.78767 26.2541 10.7418C15.8779 18.9957 11.765 30.4131 10.7677 43.2338C10.7677 44.0826 10.7227 44.934 10.7792 45.7788Z" fill="#E0E9EF"/>
<mask id="mask0_2_221" style="mask-type:luminance" maskUnits="userSpaceOnUse" x="0" y="0" width="114" height="130">
<path d="M0 0.443726H113.954V129.807H0V0.443726Z" fill="white"/>
</mask>
<g mask="url(#mask0_2_221)">
<path fill-rule="evenodd" clip-rule="evenodd" d="M67.325 72.5544C65.2452 74.0026 63.263 75.354 61.3299 76.7725C61.1284 76.9207 61.0435 77.6399 61.2035 77.8076C62.3753 79.0384 63.6236 80.1973 64.7945 81.3274C66.881 79.6476 68.769 78.128 70.635 76.6252C69.4349 75.1495 68.3541 73.8207 67.325 72.5544ZM2.85229 37.4056C2.73475 48.6193 5.19813 55.4157 9.29682 61.5159C14.7348 69.6096 22.5186 74.8088 31.6112 77.9829C36.8305 79.8055 42.2318 79.6334 47.6755 78.8809C54.8292 77.8919 60.8602 74.708 66.0905 69.8834C70.0535 66.2283 72.4802 61.5168 74.4005 56.5728C77.2037 49.3554 78.6672 42.0088 77.247 34.1343C75.1521 22.519 64.9739 9.56917 53.6592 5.92118C50.9488 5.04756 48.2026 4.28664 45.494 3.40681C42.3171 2.37524 39.0186 2.24391 35.7484 2.19733C30.6038 2.12323 25.8904 3.89531 21.459 6.35289C16.303 9.21289 12.4605 13.4612 9.5531 18.5494C5.56487 25.5281 2.93315 32.939 2.85229 37.4056ZM75.4274 74.6606C71.3261 78.0747 67.3568 81.3931 63.3699 84.6896C62.1491 85.6986 62.0559 85.8468 63.0907 87.0363C64.753 88.9455 66.527 90.7562 68.199 92.6582C75.735 101.234 83.2298 109.846 90.7869 118.403C93.4704 121.442 96.2947 124.355 99.0365 127.342C99.6847 128.049 100.361 128.177 101.288 127.914C104.249 127.073 107.001 125.782 109.488 123.998C110.28 123.429 111.011 122.488 111.3 121.568C111.7 120.295 111.784 118.877 111.754 117.528C111.736 116.757 111.395 115.852 110.9 115.259C108.635 112.544 106.263 109.918 103.93 107.26C96.3451 98.6183 88.7557 89.9797 81.1778 81.3318C79.2486 79.1307 77.3544 76.8985 75.4274 74.6606ZM63.7234 82.5431C62.5035 81.0133 61.3467 79.5274 60.1338 78.0885C59.984 77.911 59.4604 77.8462 59.2363 77.9665C51.8794 81.91 43.9807 82.7543 35.8562 81.9024C33.4171 81.6468 30.9453 80.9955 28.6605 80.0882C20.6535 76.9092 13.6041 72.2655 8.3318 65.3108C3.09708 58.4044 -0.156781 50.6407 0.0058238 41.8424C0.259452 28.125 5.35852 16.4933 15.8894 7.58323C20.813 3.41791 26.753 1.47678 33.175 1.03576C34.0463 0.975858 34.9 0.609373 35.7687 0.580977C37.7999 0.514868 39.8851 0.281045 41.8566 0.633776C45.6005 1.3033 49.3157 2.20842 52.9791 3.24398C60.8535 5.47084 66.9441 10.2666 71.8576 16.74C77.5126 24.1904 80.4523 32.577 80.2229 41.9228C80.086 47.5136 78.615 52.9044 76.4415 58.0707C74.3537 63.0329 71.8603 67.7453 67.9861 71.6182C69.1495 72.8162 70.206 73.9693 71.3508 75.0262C71.566 75.2249 72.2381 75.1894 72.5195 74.9969C73.242 74.5017 73.8195 73.7949 74.5371 73.2891C75.3342 72.7274 75.8339 72.9927 76.1167 73.9178C76.2259 74.2732 76.4389 74.63 76.6938 74.9015C85.2495 84.0259 93.8296 93.1281 102.375 102.263C105.672 105.786 108.89 109.385 112.153 112.94C114.228 115.202 114.461 118.781 113.102 121.557C111.115 125.613 107.492 127.328 103.638 128.825C102.966 129.087 102.263 129.269 101.59 129.525C100.061 130.107 98.7502 129.787 97.6543 128.593C94.0143 124.626 90.2806 120.74 86.7687 116.662C80.1019 108.921 73.5659 101.065 66.9711 93.2608C65.6212 91.6631 64.247 90.0862 62.8967 88.4894C62.6117 88.1526 62.3625 87.7821 62.1257 87.4086C60.8898 85.4608 60.9247 85.2722 62.6148 83.7313C62.9948 83.3852 63.3205 82.9783 63.7234 82.5431Z" fill="#02374E"/>
</g>
<path fill-rule="evenodd" clip-rule="evenodd" d="M74.5048 82.7267C76.2767 84.5848 78.0684 86.4239 79.8164 88.3047C86.9887 96.024 94.1773 103.728 101.294 111.5C103.381 113.78 105.257 116.257 107.204 118.664C107.537 119.077 107.74 119.594 108.004 120.063C107.895 120.198 107.786 120.332 107.678 120.467C107.195 120.192 106.609 120.017 106.246 119.629C103.829 117.046 101.465 114.413 99.0749 111.805C95.3523 107.743 91.5275 103.77 87.9193 99.6076C83.388 94.3801 79.0313 89.0004 74.6029 83.6828C74.4315 83.4765 74.2958 83.24 74.1438 83.0177L74.5048 82.7267Z" fill="#02374E"/>
<path fill-rule="evenodd" clip-rule="evenodd" d="M69.2539 86.4486C69.5941 86.8053 69.9449 87.1523 70.2723 87.5206C76.8985 94.9789 83.4787 102.478 90.1658 109.881C92.9393 112.952 95.9528 115.804 98.8285 118.784C99.7749 119.765 100.679 120.797 101.499 121.884C101.738 122.201 101.617 122.791 101.662 123.256C101.252 123.112 100.735 123.081 100.449 122.807C91.3769 114.109 83.0421 104.734 75.2141 94.9017C73.3115 92.5116 71.5118 90.038 69.6727 87.5964C69.4425 87.2907 69.2605 86.9486 69.0559 86.6234C69.1217 86.5653 69.188 86.5067 69.2539 86.4486Z" fill="#02374E"/>
<path fill-rule="evenodd" clip-rule="evenodd" d="M8.26893 41.3807C8.26893 42.1057 8.23005 42.8329 8.27865 43.5547C8.33521 44.3977 8.40856 45.2474 8.57735 46.0727C9.97451 52.9099 12.8245 59.0079 18.0053 63.7811C25.9601 71.1107 34.9847 75.3559 46.1492 73.4809C55.8003 71.8597 62.9942 66.9512 67.374 58.0766C67.9789 56.8502 68.5612 55.6079 69.0658 54.3376C72.3537 46.0585 73.1725 37.6923 69.4759 29.3328C63.0079 14.7067 50.8422 9.06525 36.2069 8.42368C30.7667 8.18498 25.7441 10.2459 21.4982 13.6232C12.6345 20.6743 9.12084 30.4278 8.26893 41.3807ZM40.3758 76.4718C35.9002 76.4385 31.6884 75.4664 27.6874 73.4805C22.7187 71.0136 18.0972 68.0853 14.4466 63.8024C5.90586 53.7835 3.54147 42.5214 7.83591 30.001C9.54547 25.0162 11.9633 20.3801 15.5185 16.4247C20.4859 10.8981 26.6693 7.88638 34.0692 7.37304C34.8208 7.32024 35.5618 7.09884 36.3054 6.94799C39.147 6.36986 41.8905 7.01986 44.6248 7.65256C49.2793 8.72983 53.9617 9.77781 58.0202 12.4923C66.4217 18.1116 71.7758 25.8703 73.4297 35.8883C75.2294 46.7901 71.827 56.521 65.3794 65.0904C60.6736 71.345 54.0134 74.7836 46.2278 75.8404C44.2845 76.104 42.3271 76.2642 40.3758 76.4718Z" fill="#02374E"/>
<path fill-rule="evenodd" clip-rule="evenodd" d="M21.0734 56.9443C20.3001 54.2902 19.3881 51.6059 18.7501 48.8568C17.9393 45.3614 17.5575 41.8111 18.3617 38.2301C18.6781 36.8209 18.96 35.3989 19.1606 33.9693C19.3382 32.7026 18.458 31.3387 17.4426 31.1085C16.4369 30.88 15.4609 31.5708 14.9496 32.8912C14.8343 33.1885 14.738 33.4995 14.6858 33.8127C13.6682 39.9618 14.3863 45.9085 16.8461 51.6236C17.7824 53.7994 19.2914 55.5627 21.0734 56.9443ZM12.5225 37.8747C12.8287 36.1567 13.062 34.1095 13.5799 32.1374C14.1335 30.0281 16.0194 28.8803 17.8164 29.2827C19.7611 29.7188 21.2037 31.9084 20.8838 34.0044C20.757 34.8372 20.62 35.6869 20.3355 36.4731C19.0589 40.0044 18.88 43.5778 19.473 47.2839C19.9325 50.1572 20.4428 52.9831 21.635 55.6536C22.3128 57.1728 23.0176 58.6458 24.5217 59.5625C24.7938 59.7289 24.8933 60.181 25.0722 60.5013C24.7103 60.5941 24.3228 60.8168 23.9932 60.7502C23.4157 60.634 22.832 60.4108 22.323 60.11C18.4792 57.8352 15.7516 54.6575 14.4097 50.3165C13.4274 47.1393 12.8808 43.9101 12.8238 40.5865C12.8106 39.7901 12.652 38.9963 12.5225 37.8747Z" fill="#02374E"/>
</svg>
