<svg width="213" height="26" viewBox="0 0 213 26" fill="none" xmlns="http://www.w3.org/2000/svg">
<mask id="mask0_2_35" style="mask-type:luminance" maskUnits="userSpaceOnUse" x="0" y="7" width="19" height="15">
<path d="M0.0345459 7.10571H18.011V21.059H0.0345459V7.10571Z" fill="white"/>
</mask>
<g mask="url(#mask0_2_35)">
<path fill-rule="evenodd" clip-rule="evenodd" d="M9.00493 18.7417C5.59834 18.7417 3.03677 17.2044 3.03677 14.1056C3.03677 10.9608 5.59834 9.42301 9.00493 9.42301C12.4386 9.42301 15.0002 10.9608 15.0002 14.1056C15.0002 17.2044 12.4386 18.7417 9.00493 18.7417ZM9.00493 7.10571C3.40658 7.10571 -1.52588e-05 9.80167 -1.52588e-05 14.1056C-1.52588e-05 18.3868 3.40658 21.059 9.00493 21.059C14.6304 21.059 18.011 18.3868 18.011 14.1056C18.011 9.80167 14.6304 7.10571 9.00493 7.10571Z" fill="#FFFFFE"/>
</g>
<path fill-rule="evenodd" clip-rule="evenodd" d="M23.5877 16.7091L27.4912 13.8379L33.3072 20.2029H36.8654L29.749 12.2826L36.4408 7.08986H32.6167L23.5877 14.0055V0.943604H20.4808V20.2029H23.5877V16.7091Z" fill="#FFFFFE"/>
<mask id="mask1_2_35" style="mask-type:luminance" maskUnits="userSpaceOnUse" x="38" y="7" width="36" height="19">
<path d="M38.3923 7.14404H73.5101V25.9486H38.3923V7.14404Z" fill="white"/>
</mask>
<g mask="url(#mask1_2_35)">
<path fill-rule="evenodd" clip-rule="evenodd" d="M41.3447 16.8566C41.3447 14.6985 44.1432 14.2325 46.0175 14.2325C48.1227 14.2325 50.5112 14.7964 51.6407 16.6608V17.0775C50.5112 18.9168 48.1227 19.5058 46.0175 19.5058C44.1432 19.5058 41.3447 19.0398 41.3447 16.8566ZM51.5886 19.1624V19.187C51.5886 19.8247 51.7684 20.4864 52.1285 21.0754H55.2349C54.7729 20.2906 54.5932 19.4812 54.5932 18.4754V13.5948C54.5932 9.37598 51.5886 7.14404 46.6851 7.14404C44.1432 7.14404 41.4478 7.80635 39.7016 8.81211L40.7797 10.7493C42.397 9.84194 44.0407 9.40059 46.12 9.40059C49.7406 9.40059 51.5886 10.7006 51.5886 13.5948V14.576C50.4854 13.2754 48.3282 12.1718 45.4525 12.1718C42.4228 12.1718 38.3923 13.3498 38.3923 16.8566C38.3923 20.3885 42.4228 21.566 45.4525 21.566C48.3282 21.566 50.4854 20.4624 51.5886 19.1624Z" fill="#FFFFFE"/>
</g>
<mask id="mask2_2_35" style="mask-type:luminance" maskUnits="userSpaceOnUse" x="38" y="7" width="36" height="19">
<path d="M38.3923 7.14404H73.5101V25.9486H38.3923V7.14404Z" fill="white"/>
</mask>
<g mask="url(#mask2_2_35)">
<path fill-rule="evenodd" clip-rule="evenodd" d="M59.7493 25.9806H62.8815L73.5101 7.63452H70.3527L64.8063 17.4455L59.1584 7.63452H55.9232L63.2662 20.1921L59.7493 25.9806Z" fill="#FFFFFE"/>
</g>
<path fill-rule="evenodd" clip-rule="evenodd" d="M93.7166 6.61125C90.7429 6.61125 88.353 7.76002 87.0781 9.62593V0.943604H83.9711V20.2029H87.0781V12.1385C88.3264 9.98502 90.4237 8.93228 92.9202 8.93228C95.8152 8.93228 97.2754 10.3201 97.2754 12.9042V20.2029H100.356V12.7132C100.356 9.17133 98.1518 6.61125 93.7166 6.61125Z" fill="#FFFFFE"/>
<path fill-rule="evenodd" clip-rule="evenodd" d="M117.73 15.6828C116.481 17.8189 114.384 18.8631 111.888 18.8631C108.993 18.8631 107.533 17.4865 107.533 14.9234V7.68433H104.452V15.1134C104.452 18.626 106.656 21.1658 111.091 21.1658C114.065 21.1658 116.455 20.0263 117.73 18.175V20.6911H120.837V7.68433H117.73V15.6828Z" fill="#FFFFFE"/>
<path fill-rule="evenodd" clip-rule="evenodd" d="M146.435 6.72144C143.4 6.72144 140.941 8.14563 139.895 10.3288C139.162 8.19274 137.331 6.72144 134.114 6.72144C131.368 6.72144 129.118 7.88419 127.993 9.71168V7.19617H124.933V20.2029H127.993V12.133C129.066 10.1393 130.792 9.02366 133.198 9.02366C135.997 9.02366 137.253 10.495 137.253 12.8924V20.2029H140.287L140.261 18.2564V12.2277C141.334 10.1631 143.112 9.02366 145.519 9.02366C148.318 9.02366 149.573 10.495 149.573 12.8924V20.2029H152.582V12.7263C152.582 9.35602 150.75 6.72144 146.435 6.72144Z" fill="#FFFFFE"/>
<path fill-rule="evenodd" clip-rule="evenodd" d="M169.348 16.6704C168.18 18.5125 165.712 19.1025 163.536 19.1025C161.598 19.1025 158.706 18.6352 158.706 16.4491C158.706 14.2871 161.598 13.8204 163.536 13.8204C165.712 13.8204 168.18 14.3857 169.348 16.2525V16.6704ZM172.4 13.1817C172.4 8.95685 169.295 6.72144 164.226 6.72144C161.598 6.72144 158.812 7.38424 157.007 8.3921L158.122 10.3323C159.793 9.42354 161.492 8.98149 163.642 8.98149C167.384 8.98149 169.295 10.2835 169.295 13.1817V14.1649C168.153 12.8624 165.924 11.757 162.952 11.757C159.82 11.757 155.654 12.9363 155.654 16.4491C155.654 19.9866 159.82 21.1659 162.952 21.1659C165.924 21.1659 168.153 20.06 169.295 18.7579V18.7826C169.295 19.4213 169.48 20.0846 169.852 20.6745H173.062C172.586 19.888 172.4 19.0778 172.4 18.0705V13.1817Z" fill="#FFFFFE"/>
<path fill-rule="evenodd" clip-rule="evenodd" d="M186.905 6.72144C183.93 6.72144 181.54 7.8609 180.266 9.71168V7.19617H177.159V20.2029H180.266V12.2039C181.514 10.0679 183.612 9.02366 186.108 9.02366C189.003 9.02366 190.463 10.4002 190.463 12.9634V20.2029H193.543V12.7739C193.543 9.26076 191.339 6.72144 186.905 6.72144Z" fill="#FFFFFE"/>
<path fill-rule="evenodd" clip-rule="evenodd" d="M205.321 12.5726C202.375 12.4012 200.087 12.1566 200.087 10.7858C200.087 9.31673 202.796 8.94933 204.742 8.94933C207.372 8.97389 209.291 9.70815 210.686 10.7121L212.29 8.8516C210.607 7.70081 207.845 6.72144 204.899 6.72144C200.06 6.72144 197.167 8.33735 197.167 10.9567C197.167 13.8211 200.902 14.6782 204.821 14.9479C208.213 15.1924 210.081 15.6084 210.081 16.9547C210.081 18.3014 208.029 18.938 205.373 18.938C202.296 18.938 199.955 18.0569 198.272 16.7101L196.615 18.3997C198.693 20.0888 201.77 21.1659 205.294 21.1659C210.37 21.1659 213 19.2077 213 16.7101C213 13.9925 209.739 12.8663 205.321 12.5726Z" fill="#FFFFFE"/>
</svg>
